<svg width="50" height="42" viewBox="0 0 50 42" fill="none" xmlns="http://www.w3.org/2000/svg">
<path d="M19.0307 36.3533V31.0023C19.0307 29.6364 20.3586 28.529 21.9967 28.529H27.9845C28.7711 28.529 29.5255 28.7896 30.0818 29.2534C30.638 29.7173 30.9505 30.3464 30.9505 31.0023V36.3533C30.9455 36.9212 31.2126 37.4673 31.6924 37.8703C32.1722 38.2733 32.825 38.5 33.506 38.5H37.5912C39.4992 38.5041 41.3307 37.875 42.6815 36.7514C44.0324 35.6278 44.7916 34.1022 44.7916 32.5112V17.267C44.7915 15.9818 44.1084 14.7627 42.9262 13.9382L29.0291 4.68277C26.6117 3.05998 23.1481 3.11238 20.8028 4.80721L7.22286 13.9382C5.98479 14.7384 5.24482 15.9611 5.20825 17.267V32.4956C5.20825 35.8117 8.43196 38.5 12.4086 38.5H16.4005C17.815 38.5 18.9645 37.5484 18.9747 36.3689L19.0307 36.3533Z" fill="#FCF6F5"/>
</svg>
